<svg width="1440" height="360" viewBox="0 0 1440 360" fill="none" xmlns="http://www.w3.org/2000/svg">
<g clip-path="url(#clip0_18213_274)">
<rect width="1440" height="360" fill="url(#paint0_linear_18213_274)"/>
<g clip-path="url(#clip1_18213_274)">
<g filter="url(#filter0_f_18213_274)">
<mask id="path-1-outside-1_18213_274" maskUnits="userSpaceOnUse" x="-3" y="-3" width="1446" height="366" fill="black">
<rect fill="white" x="-3" y="-3" width="1446" height="366"/>
<path fill-rule="evenodd" clip-rule="evenodd" d="M0 358.408L69.926 271H0V269H71.526L141.926 181H16.417L0 197.79V194.937L13.628 181H0V179H15.583L101.628 91H0V89H103.584L189.628 1H96.368L0 84.396V81.759L93.321 1H0V-1H670.818H961.408H1440V1.245L1346.68 1L1440 81.758V84.395L1343.63 1H1250.37L1336.42 89H1440V91H1338.37L1424.42 179H1440V181H1426.37L1440 194.937V197.789L1423.58 181H1298.07L1368.48 269H1440V271H1370.08L1440 358.405V361H0V358.408ZM647.642 271H503.734L480.642 359H640.089L647.642 271ZM647.813 269L655.311 181H527.734L504.267 269H647.813ZM655.482 179L662.979 91H551.829L528.267 179H655.482ZM663.15 89L670.648 1H575.738L552.267 89H663.15ZM672.307 1L664.639 89H775.276L767.256 1H672.307ZM664.465 91L656.798 179H783.479L775.459 91H664.465ZM656.623 181L648.955 269H791.682L783.661 181H656.623ZM648.781 271L641.114 359H799.884L791.864 271H648.781ZM502.24 271H359.969L337.339 321.475L320.514 359H478.722L502.24 271ZM502.77 269L526.11 181H400.32L360.865 269H502.77ZM526.64 179L549.98 91H440.671L401.216 179H526.64ZM550.51 89L573.849 1H481.022L441.568 89H550.51ZM358.116 271H216.571L162.204 359H318.603L358.116 271ZM359.011 269L398.381 181H272.174L217.807 269H359.011ZM399.276 179L438.646 91H327.776L273.409 179H399.276ZM439.541 89L478.911 1H383.382L329.012 89H439.541ZM214.383 271H72.475L2.07401 359H160.5L214.383 271ZM215.617 269L269.941 181H144.475L74.075 269H215.617ZM271.175 179L325.499 91H216.475L146.075 179H271.175ZM326.733 89L381.057 1H288.475L218.075 89H326.733ZM768.921 1L776.772 89H887.091L863.944 1H768.921ZM776.951 91L784.802 179H911.063L887.624 91H776.951ZM784.98 181L792.832 269H935.034L911.596 181H784.98ZM793.01 271L800.954 359H959.006L935.567 271H793.01ZM865.537 1L888.848 89H999.225L960.189 1H865.537ZM889.377 91L912.688 179H1039.15L1000.11 91H889.377ZM913.218 181L936.529 269H1079.07L1040.04 181H913.218ZM937.059 271L960.548 359H1118.99L1079.96 271H937.059ZM962.293 1L1001.24 89H1110.14L1055.44 1H962.293ZM1002.13 91L1041.08 179H1166.16L1111.38 91H1002.13ZM1041.97 181L1080.92 269H1222.19L1167.41 181H1041.97ZM1081.8 271L1121.04 359H1278.22L1223.44 271H1081.8ZM1057.69 1L1112.42 89H1221.93L1151.53 1H1057.69ZM1113.67 91L1168.41 179H1293.93L1223.53 91H1113.67ZM1169.65 181L1224.39 269H1365.93L1295.53 181H1169.65ZM1225.63 271L1280.41 359H1437.93L1367.53 271H1225.63ZM192.417 1L106.373 89H215.526L285.926 1H192.417ZM1154.07 1L1224.47 89H1333.63L1247.58 1H1154.07ZM143.526 179L213.926 91H104.417L18.373 179H143.526ZM1421.63 179L1335.58 91H1226.07L1296.47 179H1421.63Z"/>
</mask>
<path fill-rule="evenodd" clip-rule="evenodd" d="M0 358.408L69.926 271H0V269H71.526L141.926 181H16.417L0 197.79V194.937L13.628 181H0V179H15.583L101.628 91H0V89H103.584L189.628 1H96.368L0 84.396V81.759L93.321 1H0V-1H670.818H961.408H1440V1.245L1346.68 1L1440 81.758V84.395L1343.63 1H1250.37L1336.42 89H1440V91H1338.37L1424.42 179H1440V181H1426.37L1440 194.937V197.789L1423.58 181H1298.07L1368.48 269H1440V271H1370.08L1440 358.405V361H0V358.408ZM647.642 271H503.734L480.642 359H640.089L647.642 271ZM647.813 269L655.311 181H527.734L504.267 269H647.813ZM655.482 179L662.979 91H551.829L528.267 179H655.482ZM663.15 89L670.648 1H575.738L552.267 89H663.15ZM672.307 1L664.639 89H775.276L767.256 1H672.307ZM664.465 91L656.798 179H783.479L775.459 91H664.465ZM656.623 181L648.955 269H791.682L783.661 181H656.623ZM648.781 271L641.114 359H799.884L791.864 271H648.781ZM502.24 271H359.969L337.339 321.475L320.514 359H478.722L502.24 271ZM502.77 269L526.11 181H400.32L360.865 269H502.77ZM526.64 179L549.98 91H440.671L401.216 179H526.64ZM550.51 89L573.849 1H481.022L441.568 89H550.51ZM358.116 271H216.571L162.204 359H318.603L358.116 271ZM359.011 269L398.381 181H272.174L217.807 269H359.011ZM399.276 179L438.646 91H327.776L273.409 179H399.276ZM439.541 89L478.911 1H383.382L329.012 89H439.541ZM214.383 271H72.475L2.07401 359H160.5L214.383 271ZM215.617 269L269.941 181H144.475L74.075 269H215.617ZM271.175 179L325.499 91H216.475L146.075 179H271.175ZM326.733 89L381.057 1H288.475L218.075 89H326.733ZM768.921 1L776.772 89H887.091L863.944 1H768.921ZM776.951 91L784.802 179H911.063L887.624 91H776.951ZM784.98 181L792.832 269H935.034L911.596 181H784.98ZM793.01 271L800.954 359H959.006L935.567 271H793.01ZM865.537 1L888.848 89H999.225L960.189 1H865.537ZM889.377 91L912.688 179H1039.15L1000.11 91H889.377ZM913.218 181L936.529 269H1079.07L1040.04 181H913.218ZM937.059 271L960.548 359H1118.99L1079.96 271H937.059ZM962.293 1L1001.24 89H1110.14L1055.44 1H962.293ZM1002.13 91L1041.08 179H1166.16L1111.38 91H1002.13ZM1041.97 181L1080.92 269H1222.19L1167.41 181H1041.97ZM1081.8 271L1121.04 359H1278.22L1223.44 271H1081.8ZM1057.69 1L1112.42 89H1221.93L1151.53 1H1057.69ZM1113.67 91L1168.41 179H1293.93L1223.53 91H1113.67ZM1169.65 181L1224.39 269H1365.93L1295.53 181H1169.65ZM1225.63 271L1280.41 359H1437.93L1367.53 271H1225.63ZM192.417 1L106.373 89H215.526L285.926 1H192.417ZM1154.07 1L1224.47 89H1333.63L1247.58 1H1154.07ZM143.526 179L213.926 91H104.417L18.373 179H143.526ZM1421.63 179L1335.58 91H1226.07L1296.47 179H1421.63Z" fill="url(#paint1_linear_18213_274)" fill-opacity="0.7"/>
<path fill-rule="evenodd" clip-rule="evenodd" d="M0 358.408L69.926 271H0V269H71.526L141.926 181H16.417L0 197.79V194.937L13.628 181H0V179H15.583L101.628 91H0V89H103.584L189.628 1H96.368L0 84.396V81.759L93.321 1H0V-1H670.818H961.408H1440V1.245L1346.68 1L1440 81.758V84.395L1343.63 1H1250.37L1336.42 89H1440V91H1338.37L1424.42 179H1440V181H1426.37L1440 194.937V197.789L1423.58 181H1298.07L1368.48 269H1440V271H1370.08L1440 358.405V361H0V358.408ZM647.642 271H503.734L480.642 359H640.089L647.642 271ZM647.813 269L655.311 181H527.734L504.267 269H647.813ZM655.482 179L662.979 91H551.829L528.267 179H655.482ZM663.15 89L670.648 1H575.738L552.267 89H663.15ZM672.307 1L664.639 89H775.276L767.256 1H672.307ZM664.465 91L656.798 179H783.479L775.459 91H664.465ZM656.623 181L648.955 269H791.682L783.661 181H656.623ZM648.781 271L641.114 359H799.884L791.864 271H648.781ZM502.24 271H359.969L337.339 321.475L320.514 359H478.722L502.24 271ZM502.77 269L526.11 181H400.32L360.865 269H502.77ZM526.64 179L549.98 91H440.671L401.216 179H526.64ZM550.51 89L573.849 1H481.022L441.568 89H550.51ZM358.116 271H216.571L162.204 359H318.603L358.116 271ZM359.011 269L398.381 181H272.174L217.807 269H359.011ZM399.276 179L438.646 91H327.776L273.409 179H399.276ZM439.541 89L478.911 1H383.382L329.012 89H439.541ZM214.383 271H72.475L2.07401 359H160.5L214.383 271ZM215.617 269L269.941 181H144.475L74.075 269H215.617ZM271.175 179L325.499 91H216.475L146.075 179H271.175ZM326.733 89L381.057 1H288.475L218.075 89H326.733ZM768.921 1L776.772 89H887.091L863.944 1H768.921ZM776.951 91L784.802 179H911.063L887.624 91H776.951ZM784.98 181L792.832 269H935.034L911.596 181H784.98ZM793.01 271L800.954 359H959.006L935.567 271H793.01ZM865.537 1L888.848 89H999.225L960.189 1H865.537ZM889.377 91L912.688 179H1039.15L1000.11 91H889.377ZM913.218 181L936.529 269H1079.07L1040.04 181H913.218ZM937.059 271L960.548 359H1118.99L1079.96 271H937.059ZM962.293 1L1001.24 89H1110.14L1055.44 1H962.293ZM1002.13 91L1041.08 179H1166.16L1111.38 91H1002.13ZM1041.97 181L1080.92 269H1222.19L1167.41 181H1041.97ZM1081.8 271L1121.04 359H1278.22L1223.44 271H1081.8ZM1057.69 1L1112.42 89H1221.93L1151.53 1H1057.69ZM1113.67 91L1168.41 179H1293.93L1223.53 91H1113.67ZM1169.65 181L1224.39 269H1365.93L1295.53 181H1169.65ZM1225.63 271L1280.41 359H1437.93L1367.53 271H1225.63ZM192.417 1L106.373 89H215.526L285.926 1H192.417ZM1154.07 1L1224.47 89H1333.63L1247.58 1H1154.07ZM143.526 179L213.926 91H104.417L18.373 179H143.526ZM1421.63 179L1335.58 91H1226.07L1296.47 179H1421.63Z" stroke="url(#paint2_linear_18213_274)" stroke-opacity="0.7" stroke-width="4" stroke-miterlimit="22.9256" mask="url(#path-1-outside-1_18213_274)"/>
</g>
<path fill-rule="evenodd" clip-rule="evenodd" d="M0 358.408L69.926 271H0V269H71.526L141.926 181H16.417L0 197.79V194.937L13.628 181H0V179H15.583L101.628 91H0V89H103.584L189.628 1H96.368L0 84.396V81.759L93.321 1H0V-1H670.818H961.408H1440V1.245L1346.68 1L1440 81.758V84.395L1343.63 1H1250.37L1336.42 89H1440V91H1338.37L1424.42 179H1440V181H1426.37L1440 194.937V197.789L1423.58 181H1298.07L1368.48 269H1440V271H1370.08L1440 358.405V361H0V358.408ZM647.642 271H503.734L480.642 359H640.089L647.642 271ZM647.813 269L655.311 181H527.734L504.267 269H647.813ZM655.482 179L662.979 91H551.829L528.267 179H655.482ZM663.15 89L670.648 1H575.738L552.267 89H663.15ZM672.307 1L664.639 89H775.276L767.256 1H672.307ZM664.465 91L656.798 179H783.479L775.459 91H664.465ZM656.623 181L648.955 269H791.682L783.661 181H656.623ZM648.781 271L641.114 359H799.884L791.864 271H648.781ZM502.24 271H359.969L337.339 321.475L320.514 359H478.722L502.24 271ZM502.77 269L526.11 181H400.32L360.865 269H502.77ZM526.64 179L549.98 91H440.671L401.216 179H526.64ZM550.51 89L573.849 1H481.022L441.568 89H550.51ZM358.116 271H216.571L162.204 359H318.603L358.116 271ZM359.011 269L398.381 181H272.174L217.807 269H359.011ZM399.276 179L438.646 91H327.776L273.409 179H399.276ZM439.541 89L478.911 1H383.382L329.012 89H439.541ZM214.383 271H72.475L2.07401 359H160.5L214.383 271ZM215.617 269L269.941 181H144.475L74.075 269H215.617ZM271.175 179L325.499 91H216.475L146.075 179H271.175ZM326.733 89L381.057 1H288.475L218.075 89H326.733ZM768.921 1L776.772 89H887.091L863.944 1H768.921ZM776.951 91L784.802 179H911.063L887.624 91H776.951ZM784.98 181L792.832 269H935.034L911.596 181H784.98ZM793.01 271L800.954 359H959.006L935.567 271H793.01ZM865.537 1L888.848 89H999.225L960.189 1H865.537ZM889.377 91L912.688 179H1039.15L1000.11 91H889.377ZM913.218 181L936.529 269H1079.07L1040.04 181H913.218ZM937.059 271L960.548 359H1118.99L1079.96 271H937.059ZM962.293 1L1001.24 89H1110.14L1055.44 1H962.293ZM1002.13 91L1041.08 179H1166.16L1111.38 91H1002.13ZM1041.97 181L1080.92 269H1222.19L1167.41 181H1041.97ZM1081.8 271L1121.04 359H1278.22L1223.44 271H1081.8ZM1057.69 1L1112.42 89H1221.93L1151.53 1H1057.69ZM1113.67 91L1168.41 179H1293.93L1223.53 91H1113.67ZM1169.65 181L1224.39 269H1365.93L1295.53 181H1169.65ZM1225.63 271L1280.41 359H1437.93L1367.53 271H1225.63ZM192.417 1L106.373 89H215.526L285.926 1H192.417ZM1154.07 1L1224.47 89H1333.63L1247.58 1H1154.07ZM143.526 179L213.926 91H104.417L18.373 179H143.526ZM1421.63 179L1335.58 91H1226.07L1296.47 179H1421.63Z" fill="url(#paint3_linear_18213_274)" fill-opacity="0.7"/>
</g>
</g>
<defs>
<filter id="filter0_f_18213_274" x="-7.08728" y="-8" width="1454.18" height="376" filterUnits="userSpaceOnUse" color-interpolation-filters="sRGB">
<feFlood flood-opacity="0" result="BackgroundImageFix"/>
<feBlend mode="normal" in="SourceGraphic" in2="BackgroundImageFix" result="shape"/>
<feGaussianBlur stdDeviation="2.5" result="effect1_foregroundBlur_18213_274"/>
</filter>
<linearGradient id="paint0_linear_18213_274" x1="720" y1="1.07288e-05" x2="720" y2="360" gradientUnits="userSpaceOnUse">
<stop stop-color="#0D040C"/>
<stop offset="1" stop-color="#2B0D29"/>
</linearGradient>
<linearGradient id="paint1_linear_18213_274" x1="720" y1="-1" x2="720" y2="361" gradientUnits="userSpaceOnUse">
<stop offset="0.1" stop-color="#F600FD" stop-opacity="0"/>
<stop offset="1" stop-color="#F600FD"/>
</linearGradient>
<linearGradient id="paint2_linear_18213_274" x1="720" y1="-1" x2="720" y2="361" gradientUnits="userSpaceOnUse">
<stop offset="0.1" stop-color="#F600FD" stop-opacity="0"/>
<stop offset="1" stop-color="#F600FD"/>
</linearGradient>
<linearGradient id="paint3_linear_18213_274" x1="720" y1="-1" x2="720" y2="361" gradientUnits="userSpaceOnUse">
<stop offset="0.1" stop-color="#F600FD" stop-opacity="0"/>
<stop offset="1" stop-color="#F600FD"/>
</linearGradient>
<clipPath id="clip0_18213_274">
<rect width="1440" height="360" fill="white"/>
</clipPath>
<clipPath id="clip1_18213_274">
<rect width="1444" height="366" fill="white" transform="translate(-2 -3)"/>
</clipPath>
</defs>
</svg>
