<svg width="1142" height="162" viewBox="0 0 1142 162" fill="none" xmlns="http://www.w3.org/2000/svg">
<mask id="path-1-outside-1_18224_176" maskUnits="userSpaceOnUse" x="12" y="54" width="81" height="81" fill="black">
<rect fill="white" x="12" y="54" width="81" height="81"/>
<path d="M15 132V72H30V57H75V72H90V132H60V102H45V132H15ZM45 87H60V72.6H45V87Z"/>
</mask>
<path d="M15 132V72H30V57H75V72H90V132H60V102H45V132H15ZM45 87H60V72.6H45V87Z" fill="#5B0B8C"/>
<path d="M15 132H12V135H15V132ZM15 72V69H12V72H15ZM30 72V75H33V72H30ZM30 57V54H27V57H30ZM75 57H78V54H75V57ZM75 72H72V75H75V72ZM90 72H93V69H90V72ZM90 132V135H93V132H90ZM60 132H57V135H60V132ZM60 102H63V99H60V102ZM45 102V99H42V102H45ZM45 132V135H48V132H45ZM45 87H42V90H45V87ZM60 87V90H63V87H60ZM60 72.6H63V69.6H60V72.6ZM45 72.6V69.6H42V72.6H45ZM18 132V72H12V132H18ZM15 75H30V69H15V75ZM33 72V57H27V72H33ZM30 60H75V54H30V60ZM72 57V72H78V57H72ZM75 75H90V69H75V75ZM87 72V132H93V72H87ZM90 129H60V135H90V129ZM63 132V102H57V132H63ZM60 99H45V105H60V99ZM42 102V132H48V102H42ZM45 129H15V135H45V129ZM45 90H60V84H45V90ZM63 87V72.6H57V87H63ZM60 69.6H45V75.6H60V69.6ZM42 72.6V87H48V72.6H42Z" fill="#5B0B8C" mask="url(#path-1-outside-1_18224_176)"/>
<mask id="path-3-outside-2_18224_176" maskUnits="userSpaceOnUse" x="521" y="54" width="81" height="81" fill="black">
<rect fill="white" x="521" y="54" width="81" height="81"/>
<path d="M524 132V72H539V57H584V72H599V132H569V102H554V132H524ZM554 87H569V72.6H554V87Z"/>
</mask>
<path d="M524 132V72H539V57H584V72H599V132H569V102H554V132H524ZM554 87H569V72.6H554V87Z" fill="#5B0B8C"/>
<path d="M524 132H521V135H524V132ZM524 72V69H521V72H524ZM539 72V75H542V72H539ZM539 57V54H536V57H539ZM584 57H587V54H584V57ZM584 72H581V75H584V72ZM599 72H602V69H599V72ZM599 132V135H602V132H599ZM569 132H566V135H569V132ZM569 102H572V99H569V102ZM554 102V99H551V102H554ZM554 132V135H557V132H554ZM554 87H551V90H554V87ZM569 87V90H572V87H569ZM569 72.6H572V69.6H569V72.6ZM554 72.6V69.6H551V72.6H554ZM527 132V72H521V132H527ZM524 75H539V69H524V75ZM542 72V57H536V72H542ZM539 60H584V54H539V60ZM581 57V72H587V57H581ZM584 75H599V69H584V75ZM596 72V132H602V72H596ZM599 129H569V135H599V129ZM572 132V102H566V132H572ZM569 99H554V105H569V99ZM551 102V132H557V102H551ZM554 129H524V135H554V129ZM554 90H569V84H554V90ZM572 87V72.6H566V87H572ZM569 69.6H554V75.6H569V69.6ZM551 72.6V87H557V72.6H551Z" fill="#5B0B8C" mask="url(#path-3-outside-2_18224_176)"/>
<mask id="path-5-outside-3_18224_176" maskUnits="userSpaceOnUse" x="143" y="54" width="66" height="81" fill="black">
<rect fill="white" x="143" y="54" width="66" height="81"/>
<path d="M146 132V57H176V117H206V132H146Z"/>
</mask>
<path d="M146 132V57H176V117H206V132H146Z" fill="#5B0B8C"/>
<path d="M146 132H143V135H146V132ZM146 57V54H143V57H146ZM176 57H179V54H176V57ZM176 117H173V120H176V117ZM206 117H209V114H206V117ZM206 132V135H209V132H206ZM149 132V57H143V132H149ZM146 60H176V54H146V60ZM173 57V117H179V57H173ZM176 120H206V114H176V120ZM203 117V132H209V117H203ZM206 129H146V135H206V129Z" fill="#5B0B8C" mask="url(#path-5-outside-3_18224_176)"/>
<mask id="path-7-outside-4_18224_176" maskUnits="userSpaceOnUse" x="390" y="54" width="81" height="81" fill="black">
<rect fill="white" x="390" y="54" width="81" height="81"/>
<path d="M393 132V57H453V72H468V87H453V117H468V132H438V117H423V132H393ZM423 87H438V72H423V87Z"/>
</mask>
<path d="M393 132V57H453V72H468V87H453V117H468V132H438V117H423V132H393ZM423 87H438V72H423V87Z" fill="#5B0B8C"/>
<path d="M393 132H390V135H393V132ZM393 57V54H390V57H393ZM453 57H456V54H453V57ZM453 72H450V75H453V72ZM468 72H471V69H468V72ZM468 87V90H471V87H468ZM453 87V84H450V87H453ZM453 117H450V120H453V117ZM468 117H471V114H468V117ZM468 132V135H471V132H468ZM438 132H435V135H438V132ZM438 117H441V114H438V117ZM423 117V114H420V117H423ZM423 132V135H426V132H423ZM423 87H420V90H423V87ZM438 87V90H441V87H438ZM438 72H441V69H438V72ZM423 72V69H420V72H423ZM396 132V57H390V132H396ZM393 60H453V54H393V60ZM450 57V72H456V57H450ZM453 75H468V69H453V75ZM465 72V87H471V72H465ZM468 84H453V90H468V84ZM450 87V117H456V87H450ZM453 120H468V114H453V120ZM465 117V132H471V117H465ZM468 129H438V135H468V129ZM441 132V117H435V132H441ZM438 114H423V120H438V114ZM420 117V132H426V117H420ZM423 129H393V135H423V129ZM423 90H438V84H423V90ZM441 87V72H435V87H441ZM438 69H423V75H438V69ZM420 72V87H426V72H420Z" fill="#5B0B8C" mask="url(#path-7-outside-4_18224_176)"/>
<mask id="path-9-outside-5_18224_176" maskUnits="userSpaceOnUse" x="259" y="54" width="81" height="81" fill="black">
<rect fill="white" x="259" y="54" width="81" height="81"/>
<path d="M277 132V117H262V57H292V117H307V57H337V117H322V132H277Z"/>
</mask>
<path d="M277 132V117H262V57H292V117H307V57H337V117H322V132H277Z" fill="#5B0B8C"/>
<path d="M277 132H274V135H277V132ZM277 117H280V114H277V117ZM262 117H259V120H262V117ZM262 57V54H259V57H262ZM292 57H295V54H292V57ZM292 117H289V120H292V117ZM307 117V120H310V117H307ZM307 57V54H304V57H307ZM337 57H340V54H337V57ZM337 117V120H340V117H337ZM322 117V114H319V117H322ZM322 132V135H325V132H322ZM280 132V117H274V132H280ZM277 114H262V120H277V114ZM265 117V57H259V117H265ZM262 60H292V54H262V60ZM289 57V117H295V57H289ZM292 120H307V114H292V120ZM310 117V57H304V117H310ZM307 60H337V54H307V60ZM334 57V117H340V57H334ZM337 114H322V120H337V114ZM319 117V132H325V117H319ZM322 129H277V135H322V129Z" fill="#5B0B8C" mask="url(#path-9-outside-5_18224_176)"/>
<mask id="path-11-outside-6_18224_176" maskUnits="userSpaceOnUse" x="686" y="54" width="81" height="81" fill="black">
<rect fill="white" x="686" y="54" width="81" height="81"/>
<path d="M704 132V117H689V72H704V57H764V72H719V117H734V87H764V117H749V132H704Z"/>
</mask>
<path d="M704 132V117H689V72H704V57H764V72H719V117H734V87H764V117H749V132H704Z" fill="#5B0B8C"/>
<path d="M704 132H701V135H704V132ZM704 117H707V114H704V117ZM689 117H686V120H689V117ZM689 72V69H686V72H689ZM704 72V75H707V72H704ZM704 57V54H701V57H704ZM764 57H767V54H764V57ZM764 72V75H767V72H764ZM719 72V69H716V72H719ZM719 117H716V120H719V117ZM734 117V120H737V117H734ZM734 87V84H731V87H734ZM764 87H767V84H764V87ZM764 117V120H767V117H764ZM749 117V114H746V117H749ZM749 132V135H752V132H749ZM707 132V117H701V132H707ZM704 114H689V120H704V114ZM692 117V72H686V117H692ZM689 75H704V69H689V75ZM707 72V57H701V72H707ZM704 60H764V54H704V60ZM761 57V72H767V57H761ZM764 69H719V75H764V69ZM716 72V117H722V72H716ZM719 120H734V114H719V120ZM737 117V87H731V117H737ZM734 90H764V84H734V90ZM761 87V117H767V87H761ZM764 114H749V120H764V114ZM746 117V132H752V117H746ZM749 129H704V135H749V129Z" fill="#5B0B8C" mask="url(#path-11-outside-6_18224_176)"/>
<mask id="path-13-outside-7_18224_176" maskUnits="userSpaceOnUse" x="817" y="54" width="66" height="81" fill="black">
<rect fill="white" x="817" y="54" width="66" height="81"/>
<path d="M820 132V57H880V72H850V87H880V102H850V117H880V132H820Z"/>
</mask>
<path d="M820 132V57H880V72H850V87H880V102H850V117H880V132H820Z" fill="#5B0B8C"/>
<path d="M820 132H817V135H820V132ZM820 57V54H817V57H820ZM880 57H883V54H880V57ZM880 72V75H883V72H880ZM850 72V69H847V72H850ZM850 87H847V90H850V87ZM880 87H883V84H880V87ZM880 102V105H883V102H880ZM850 102V99H847V102H850ZM850 117H847V120H850V117ZM880 117H883V114H880V117ZM880 132V135H883V132H880ZM823 132V57H817V132H823ZM820 60H880V54H820V60ZM877 57V72H883V57H877ZM880 69H850V75H880V69ZM847 72V87H853V72H847ZM850 90H880V84H850V90ZM877 87V102H883V87H877ZM880 99H850V105H880V99ZM847 102V117H853V102H847ZM850 120H880V114H850V120ZM877 117V132H883V117H877ZM880 129H820V135H880V129Z" fill="#5B0B8C" mask="url(#path-13-outside-7_18224_176)"/>
<mask id="path-15-outside-8_18224_176" maskUnits="userSpaceOnUse" x="1049" y="54" width="81" height="81" fill="black">
<rect fill="white" x="1049" y="54" width="81" height="81"/>
<path d="M1052 132V57H1082V72H1097V57H1127V72H1112V87H1097V102H1112V117H1127V132H1097V117H1082V132H1052Z"/>
</mask>
<path d="M1052 132V57H1082V72H1097V57H1127V72H1112V87H1097V102H1112V117H1127V132H1097V117H1082V132H1052Z" fill="#5B0B8C"/>
<path d="M1052 132H1049V135H1052V132ZM1052 57V54H1049V57H1052ZM1082 57H1085V54H1082V57ZM1082 72H1079V75H1082V72ZM1097 72V75H1100V72H1097ZM1097 57V54H1094V57H1097ZM1127 57H1130V54H1127V57ZM1127 72V75H1130V72H1127ZM1112 72V69H1109V72H1112ZM1112 87V90H1115V87H1112ZM1097 87V84H1094V87H1097ZM1097 102H1094V105H1097V102ZM1112 102H1115V99H1112V102ZM1112 117H1109V120H1112V117ZM1127 117H1130V114H1127V117ZM1127 132V135H1130V132H1127ZM1097 132H1094V135H1097V132ZM1097 117H1100V114H1097V117ZM1082 117V114H1079V117H1082ZM1082 132V135H1085V132H1082ZM1055 132V57H1049V132H1055ZM1052 60H1082V54H1052V60ZM1079 57V72H1085V57H1079ZM1082 75H1097V69H1082V75ZM1100 72V57H1094V72H1100ZM1097 60H1127V54H1097V60ZM1124 57V72H1130V57H1124ZM1127 69H1112V75H1127V69ZM1109 72V87H1115V72H1109ZM1112 84H1097V90H1112V84ZM1094 87V102H1100V87H1094ZM1097 105H1112V99H1097V105ZM1109 102V117H1115V102H1109ZM1112 120H1127V114H1112V120ZM1124 117V132H1130V117H1124ZM1127 129H1097V135H1127V129ZM1100 132V117H1094V132H1100ZM1097 114H1082V120H1097V114ZM1079 117V132H1085V117H1079ZM1082 129H1052V135H1082V129Z" fill="#5B0B8C" mask="url(#path-15-outside-8_18224_176)"/>
<mask id="path-17-outside-9_18224_176" maskUnits="userSpaceOnUse" x="933" y="54" width="66" height="81" fill="black">
<rect fill="white" x="933" y="54" width="66" height="81"/>
<path d="M936 132V57H996V72H966V87H996V102H966V117H996V132H936Z"/>
</mask>
<path d="M936 132V57H996V72H966V87H996V102H966V117H996V132H936Z" fill="#5B0B8C"/>
<path d="M936 132H933V135H936V132ZM936 57V54H933V57H936ZM996 57H999V54H996V57ZM996 72V75H999V72H996ZM966 72V69H963V72H966ZM966 87H963V90H966V87ZM996 87H999V84H996V87ZM996 102V105H999V102H996ZM966 102V99H963V102H966ZM966 117H963V120H966V117ZM996 117H999V114H996V117ZM996 132V135H999V132H996ZM939 132V57H933V132H939ZM936 60H996V54H936V60ZM993 57V72H999V57H993ZM996 69H966V75H996V69ZM963 72V87H969V72H963ZM966 90H996V84H966V90ZM993 87V102H999V87H993ZM996 99H966V105H996V99ZM963 102V117H969V102H963ZM966 120H996V114H966V120ZM993 117V132H999V117H993ZM996 129H936V135H996V129Z" fill="#5B0B8C" mask="url(#path-17-outside-9_18224_176)"/>
<mask id="path-19-outside-10_18224_176" maskUnits="userSpaceOnUse" x="12" y="46" width="81" height="81" fill="black">
<rect fill="white" x="12" y="46" width="81" height="81"/>
<path d="M15 124V64H30V49H75V64H90V124H60V94H45V124H15ZM45 79H60V64.6H45V79Z"/>
</mask>
<path d="M15 124V64H30V49H75V64H90V124H60V94H45V124H15ZM45 79H60V64.6H45V79Z" fill="url(#paint0_linear_18224_176)"/>
<path d="M15 124H12V127H15V124ZM15 64V61H12V64H15ZM30 64V67H33V64H30ZM30 49V46H27V49H30ZM75 49H78V46H75V49ZM75 64H72V67H75V64ZM90 64H93V61H90V64ZM90 124V127H93V124H90ZM60 124H57V127H60V124ZM60 94H63V91H60V94ZM45 94V91H42V94H45ZM45 124V127H48V124H45ZM45 79H42V82H45V79ZM60 79V82H63V79H60ZM60 64.6H63V61.6H60V64.6ZM45 64.6V61.6H42V64.6H45ZM18 124V64H12V124H18ZM15 67H30V61H15V67ZM33 64V49H27V64H33ZM30 52H75V46H30V52ZM72 49V64H78V49H72ZM75 67H90V61H75V67ZM87 64V124H93V64H87ZM90 121H60V127H90V121ZM63 124V94H57V124H63ZM60 91H45V97H60V91ZM42 94V124H48V94H42ZM45 121H15V127H45V121ZM45 82H60V76H45V82ZM63 79V64.6H57V79H63ZM60 61.6H45V67.6H60V61.6ZM42 64.6V79H48V64.6H42Z" fill="#FFF7FF" mask="url(#path-19-outside-10_18224_176)"/>
<mask id="path-21-outside-11_18224_176" maskUnits="userSpaceOnUse" x="521" y="46" width="81" height="81" fill="black">
<rect fill="white" x="521" y="46" width="81" height="81"/>
<path d="M524 124V64H539V49H584V64H599V124H569V94H554V124H524ZM554 79H569V64.6H554V79Z"/>
</mask>
<path d="M524 124V64H539V49H584V64H599V124H569V94H554V124H524ZM554 79H569V64.6H554V79Z" fill="url(#paint1_linear_18224_176)"/>
<path d="M524 124H521V127H524V124ZM524 64V61H521V64H524ZM539 64V67H542V64H539ZM539 49V46H536V49H539ZM584 49H587V46H584V49ZM584 64H581V67H584V64ZM599 64H602V61H599V64ZM599 124V127H602V124H599ZM569 124H566V127H569V124ZM569 94H572V91H569V94ZM554 94V91H551V94H554ZM554 124V127H557V124H554ZM554 79H551V82H554V79ZM569 79V82H572V79H569ZM569 64.6H572V61.6H569V64.6ZM554 64.6V61.6H551V64.6H554ZM527 124V64H521V124H527ZM524 67H539V61H524V67ZM542 64V49H536V64H542ZM539 52H584V46H539V52ZM581 49V64H587V49H581ZM584 67H599V61H584V67ZM596 64V124H602V64H596ZM599 121H569V127H599V121ZM572 124V94H566V124H572ZM569 91H554V97H569V91ZM551 94V124H557V94H551ZM554 121H524V127H554V121ZM554 82H569V76H554V82ZM572 79V64.6H566V79H572ZM569 61.6H554V67.6H569V61.6ZM551 64.6V79H557V64.6H551Z" fill="#FFF7FF" mask="url(#path-21-outside-11_18224_176)"/>
<mask id="path-23-outside-12_18224_176" maskUnits="userSpaceOnUse" x="143" y="46" width="66" height="81" fill="black">
<rect fill="white" x="143" y="46" width="66" height="81"/>
<path d="M146 124V49H176V109H206V124H146Z"/>
</mask>
<path d="M146 124V49H176V109H206V124H146Z" fill="url(#paint2_linear_18224_176)"/>
<path d="M146 124H143V127H146V124ZM146 49V46H143V49H146ZM176 49H179V46H176V49ZM176 109H173V112H176V109ZM206 109H209V106H206V109ZM206 124V127H209V124H206ZM149 124V49H143V124H149ZM146 52H176V46H146V52ZM173 49V109H179V49H173ZM176 112H206V106H176V112ZM203 109V124H209V109H203ZM206 121H146V127H206V121Z" fill="#FFF7FF" mask="url(#path-23-outside-12_18224_176)"/>
<mask id="path-25-outside-13_18224_176" maskUnits="userSpaceOnUse" x="390" y="46" width="81" height="81" fill="black">
<rect fill="white" x="390" y="46" width="81" height="81"/>
<path d="M393 124V49H453V64H468V79H453V109H468V124H438V109H423V124H393ZM423 79H438V64H423V79Z"/>
</mask>
<path d="M393 124V49H453V64H468V79H453V109H468V124H438V109H423V124H393ZM423 79H438V64H423V79Z" fill="url(#paint3_linear_18224_176)"/>
<path d="M393 124H390V127H393V124ZM393 49V46H390V49H393ZM453 49H456V46H453V49ZM453 64H450V67H453V64ZM468 64H471V61H468V64ZM468 79V82H471V79H468ZM453 79V76H450V79H453ZM453 109H450V112H453V109ZM468 109H471V106H468V109ZM468 124V127H471V124H468ZM438 124H435V127H438V124ZM438 109H441V106H438V109ZM423 109V106H420V109H423ZM423 124V127H426V124H423ZM423 79H420V82H423V79ZM438 79V82H441V79H438ZM438 64H441V61H438V64ZM423 64V61H420V64H423ZM396 124V49H390V124H396ZM393 52H453V46H393V52ZM450 49V64H456V49H450ZM453 67H468V61H453V67ZM465 64V79H471V64H465ZM468 76H453V82H468V76ZM450 79V109H456V79H450ZM453 112H468V106H453V112ZM465 109V124H471V109H465ZM468 121H438V127H468V121ZM441 124V109H435V124H441ZM438 106H423V112H438V106ZM420 109V124H426V109H420ZM423 121H393V127H423V121ZM423 82H438V76H423V82ZM441 79V64H435V79H441ZM438 61H423V67H438V61ZM420 64V79H426V64H420Z" fill="#FFF7FF" mask="url(#path-25-outside-13_18224_176)"/>
<mask id="path-27-outside-14_18224_176" maskUnits="userSpaceOnUse" x="259" y="46" width="81" height="81" fill="black">
<rect fill="white" x="259" y="46" width="81" height="81"/>
<path d="M277 124V109H262V49H292V109H307V49H337V109H322V124H277Z"/>
</mask>
<path d="M277 124V109H262V49H292V109H307V49H337V109H322V124H277Z" fill="url(#paint4_linear_18224_176)"/>
<path d="M277 124H274V127H277V124ZM277 109H280V106H277V109ZM262 109H259V112H262V109ZM262 49V46H259V49H262ZM292 49H295V46H292V49ZM292 109H289V112H292V109ZM307 109V112H310V109H307ZM307 49V46H304V49H307ZM337 49H340V46H337V49ZM337 109V112H340V109H337ZM322 109V106H319V109H322ZM322 124V127H325V124H322ZM280 124V109H274V124H280ZM277 106H262V112H277V106ZM265 109V49H259V109H265ZM262 52H292V46H262V52ZM289 49V109H295V49H289ZM292 112H307V106H292V112ZM310 109V49H304V109H310ZM307 52H337V46H307V52ZM334 49V109H340V49H334ZM337 106H322V112H337V106ZM319 109V124H325V109H319ZM322 121H277V127H322V121Z" fill="#FFF7FF" mask="url(#path-27-outside-14_18224_176)"/>
<mask id="path-29-outside-15_18224_176" maskUnits="userSpaceOnUse" x="686" y="46" width="81" height="81" fill="black">
<rect fill="white" x="686" y="46" width="81" height="81"/>
<path d="M704 124V109H689V64H704V49H764V64H719V109H734V79H764V109H749V124H704Z"/>
</mask>
<path d="M704 124V109H689V64H704V49H764V64H719V109H734V79H764V109H749V124H704Z" fill="url(#paint5_linear_18224_176)"/>
<path d="M704 124H701V127H704V124ZM704 109H707V106H704V109ZM689 109H686V112H689V109ZM689 64V61H686V64H689ZM704 64V67H707V64H704ZM704 49V46H701V49H704ZM764 49H767V46H764V49ZM764 64V67H767V64H764ZM719 64V61H716V64H719ZM719 109H716V112H719V109ZM734 109V112H737V109H734ZM734 79V76H731V79H734ZM764 79H767V76H764V79ZM764 109V112H767V109H764ZM749 109V106H746V109H749ZM749 124V127H752V124H749ZM707 124V109H701V124H707ZM704 106H689V112H704V106ZM692 109V64H686V109H692ZM689 67H704V61H689V67ZM707 64V49H701V64H707ZM704 52H764V46H704V52ZM761 49V64H767V49H761ZM764 61H719V67H764V61ZM716 64V109H722V64H716ZM719 112H734V106H719V112ZM737 109V79H731V109H737ZM734 82H764V76H734V82ZM761 79V109H767V79H761ZM764 106H749V112H764V106ZM746 109V124H752V109H746ZM749 121H704V127H749V121Z" fill="#FFF7FF" mask="url(#path-29-outside-15_18224_176)"/>
<mask id="path-31-outside-16_18224_176" maskUnits="userSpaceOnUse" x="817" y="46" width="66" height="81" fill="black">
<rect fill="white" x="817" y="46" width="66" height="81"/>
<path d="M820 124V49H880V64H850V79H880V94H850V109H880V124H820Z"/>
</mask>
<path d="M820 124V49H880V64H850V79H880V94H850V109H880V124H820Z" fill="url(#paint6_linear_18224_176)"/>
<path d="M820 124H817V127H820V124ZM820 49V46H817V49H820ZM880 49H883V46H880V49ZM880 64V67H883V64H880ZM850 64V61H847V64H850ZM850 79H847V82H850V79ZM880 79H883V76H880V79ZM880 94V97H883V94H880ZM850 94V91H847V94H850ZM850 109H847V112H850V109ZM880 109H883V106H880V109ZM880 124V127H883V124H880ZM823 124V49H817V124H823ZM820 52H880V46H820V52ZM877 49V64H883V49H877ZM880 61H850V67H880V61ZM847 64V79H853V64H847ZM850 82H880V76H850V82ZM877 79V94H883V79H877ZM880 91H850V97H880V91ZM847 94V109H853V94H847ZM850 112H880V106H850V112ZM877 109V124H883V109H877ZM880 121H820V127H880V121Z" fill="#FFF7FF" mask="url(#path-31-outside-16_18224_176)"/>
<mask id="path-33-outside-17_18224_176" maskUnits="userSpaceOnUse" x="1049" y="46" width="81" height="81" fill="black">
<rect fill="white" x="1049" y="46" width="81" height="81"/>
<path d="M1052 124V49H1082V64H1097V49H1127V64H1112V79H1097V94H1112V109H1127V124H1097V109H1082V124H1052Z"/>
</mask>
<path d="M1052 124V49H1082V64H1097V49H1127V64H1112V79H1097V94H1112V109H1127V124H1097V109H1082V124H1052Z" fill="url(#paint7_linear_18224_176)"/>
<path d="M1052 124H1049V127H1052V124ZM1052 49V46H1049V49H1052ZM1082 49H1085V46H1082V49ZM1082 64H1079V67H1082V64ZM1097 64V67H1100V64H1097ZM1097 49V46H1094V49H1097ZM1127 49H1130V46H1127V49ZM1127 64V67H1130V64H1127ZM1112 64V61H1109V64H1112ZM1112 79V82H1115V79H1112ZM1097 79V76H1094V79H1097ZM1097 94H1094V97H1097V94ZM1112 94H1115V91H1112V94ZM1112 109H1109V112H1112V109ZM1127 109H1130V106H1127V109ZM1127 124V127H1130V124H1127ZM1097 124H1094V127H1097V124ZM1097 109H1100V106H1097V109ZM1082 109V106H1079V109H1082ZM1082 124V127H1085V124H1082ZM1055 124V49H1049V124H1055ZM1052 52H1082V46H1052V52ZM1079 49V64H1085V49H1079ZM1082 67H1097V61H1082V67ZM1100 64V49H1094V64H1100ZM1097 52H1127V46H1097V52ZM1124 49V64H1130V49H1124ZM1127 61H1112V67H1127V61ZM1109 64V79H1115V64H1109ZM1112 76H1097V82H1112V76ZM1094 79V94H1100V79H1094ZM1097 97H1112V91H1097V97ZM1109 94V109H1115V94H1109ZM1112 112H1127V106H1112V112ZM1124 109V124H1130V109H1124ZM1127 121H1097V127H1127V121ZM1100 124V109H1094V124H1100ZM1097 106H1082V112H1097V106ZM1079 109V124H1085V109H1079ZM1082 121H1052V127H1082V121Z" fill="#FFF7FF" mask="url(#path-33-outside-17_18224_176)"/>
<mask id="path-35-outside-18_18224_176" maskUnits="userSpaceOnUse" x="933" y="46" width="66" height="81" fill="black">
<rect fill="white" x="933" y="46" width="66" height="81"/>
<path d="M936 124V49H996V64H966V79H996V94H966V109H996V124H936Z"/>
</mask>
<path d="M936 124V49H996V64H966V79H996V94H966V109H996V124H936Z" fill="url(#paint8_linear_18224_176)"/>
<path d="M936 124H933V127H936V124ZM936 49V46H933V49H936ZM996 49H999V46H996V49ZM996 64V67H999V64H996ZM966 64V61H963V64H966ZM966 79H963V82H966V79ZM996 79H999V76H996V79ZM996 94V97H999V94H996ZM966 94V91H963V94H966ZM966 109H963V112H966V109ZM996 109H999V106H996V109ZM996 124V127H999V124H996ZM939 124V49H933V124H939ZM936 52H996V46H936V52ZM993 49V64H999V49H993ZM996 61H966V67H996V61ZM963 64V79H969V64H963ZM966 82H996V76H966V82ZM993 79V94H999V79H993ZM996 91H966V97H996V91ZM963 94V109H969V94H963ZM966 112H996V106H966V112ZM993 109V124H999V109H993ZM996 121H936V127H996V121Z" fill="#FFF7FF" mask="url(#path-35-outside-18_18224_176)"/>
<defs>
<linearGradient id="paint0_linear_18224_176" x1="12.5" y1="58.5" x2="93.5" y2="124" gradientUnits="userSpaceOnUse">
<stop stop-color="#F600FD"/>
<stop offset="0.25" stop-color="#F600FD"/>
<stop offset="0.445" stop-color="#2FD2FF"/>
<stop offset="0.86" stop-color="#5B0B8C"/>
<stop offset="1" stop-color="#5B0B8C"/>
</linearGradient>
<linearGradient id="paint1_linear_18224_176" x1="521.5" y1="58.5" x2="602.5" y2="124" gradientUnits="userSpaceOnUse">
<stop stop-color="#F600FD"/>
<stop offset="0.25" stop-color="#F600FD"/>
<stop offset="0.445" stop-color="#2FD2FF"/>
<stop offset="0.86" stop-color="#5B0B8C"/>
<stop offset="1" stop-color="#5B0B8C"/>
</linearGradient>
<linearGradient id="paint2_linear_18224_176" x1="141.714" y1="58.5" x2="219.279" y2="112.262" gradientUnits="userSpaceOnUse">
<stop stop-color="#F600FD"/>
<stop offset="0.25" stop-color="#F600FD"/>
<stop offset="0.445" stop-color="#2FD2FF"/>
<stop offset="0.86" stop-color="#5B0B8C"/>
<stop offset="1" stop-color="#5B0B8C"/>
</linearGradient>
<linearGradient id="paint3_linear_18224_176" x1="390.5" y1="58.5" x2="471.5" y2="124" gradientUnits="userSpaceOnUse">
<stop stop-color="#F600FD"/>
<stop offset="0.25" stop-color="#F600FD"/>
<stop offset="0.445" stop-color="#2FD2FF"/>
<stop offset="0.86" stop-color="#5B0B8C"/>
<stop offset="1" stop-color="#5B0B8C"/>
</linearGradient>
<linearGradient id="paint4_linear_18224_176" x1="259.5" y1="58.5" x2="340.5" y2="124" gradientUnits="userSpaceOnUse">
<stop stop-color="#F600FD"/>
<stop offset="0.25" stop-color="#F600FD"/>
<stop offset="0.445" stop-color="#2FD2FF"/>
<stop offset="0.86" stop-color="#5B0B8C"/>
<stop offset="1" stop-color="#5B0B8C"/>
</linearGradient>
<linearGradient id="paint5_linear_18224_176" x1="686.5" y1="58.5" x2="767.5" y2="124" gradientUnits="userSpaceOnUse">
<stop stop-color="#F600FD"/>
<stop offset="0.25" stop-color="#F600FD"/>
<stop offset="0.445" stop-color="#2FD2FF"/>
<stop offset="0.86" stop-color="#5B0B8C"/>
<stop offset="1" stop-color="#5B0B8C"/>
</linearGradient>
<linearGradient id="paint6_linear_18224_176" x1="815.714" y1="58.5" x2="893.279" y2="112.262" gradientUnits="userSpaceOnUse">
<stop stop-color="#F600FD"/>
<stop offset="0.25" stop-color="#F600FD"/>
<stop offset="0.445" stop-color="#2FD2FF"/>
<stop offset="0.86" stop-color="#5B0B8C"/>
<stop offset="1" stop-color="#5B0B8C"/>
</linearGradient>
<linearGradient id="paint7_linear_18224_176" x1="1049.5" y1="58.5" x2="1130.5" y2="124" gradientUnits="userSpaceOnUse">
<stop stop-color="#F600FD"/>
<stop offset="0.25" stop-color="#F600FD"/>
<stop offset="0.445" stop-color="#2FD2FF"/>
<stop offset="0.86" stop-color="#5B0B8C"/>
<stop offset="1" stop-color="#5B0B8C"/>
</linearGradient>
<linearGradient id="paint8_linear_18224_176" x1="931.714" y1="58.5" x2="1009.28" y2="112.262" gradientUnits="userSpaceOnUse">
<stop stop-color="#F600FD"/>
<stop offset="0.25" stop-color="#F600FD"/>
<stop offset="0.445" stop-color="#2FD2FF"/>
<stop offset="0.86" stop-color="#5B0B8C"/>
<stop offset="1" stop-color="#5B0B8C"/>
</linearGradient>
</defs>
</svg>
